<?xml version="1.0" encoding="utf-8"?>
<!-- Generator: Adobe Illustrator 16.0.4, SVG Export Plug-In . SVG Version: 6.00 Build 0)  -->
<!DOCTYPE svg PUBLIC "-//W3C//DTD SVG 1.1//EN" "http://www.w3.org/Graphics/SVG/1.1/DTD/svg11.dtd">
<svg version="1.1" id="Layer_1" xmlns="http://www.w3.org/2000/svg" xmlns:xlink="http://www.w3.org/1999/xlink" x="0px" y="0px"
	 width="69.766px" height="40.584px" viewBox="0 0 69.766 40.584" enable-background="new 0 0 69.766 40.584" xml:space="preserve">
<path fill="none" stroke="#000000" stroke-width="6" stroke-miterlimit="10" d="M65.515,19.953c0,0-30.798-30.584-61.382,0.002
	C4.134,19.955,33.203,52.267,65.515,19.953z"/>
<path d="M35.213,6.585c-6.628,0-12,5.373-12,12c0,0.381,0.021,0.758,0.057,1.129l10.468-7.496l2.911,4.064L24.9,24.697
	c2.092,3.52,5.92,5.887,10.313,5.887c6.627,0,12-5.373,12-11.999C47.213,11.958,41.84,6.585,35.213,6.585z"/>
<line fill="none" stroke="#000000" stroke-width="6" stroke-miterlimit="10" x1="17.213" y1="38.463" x2="53.555" y2="2.121"/>
</svg>
