<?xml version="1.0" encoding="utf-8"?>
<!-- Generator: Adobe Illustrator 16.0.4, SVG Export Plug-In . SVG Version: 6.00 Build 0)  -->
<!DOCTYPE svg PUBLIC "-//W3C//DTD SVG 1.1//EN" "http://www.w3.org/Graphics/SVG/1.1/DTD/svg11.dtd">
<svg version="1.1" id="Layer_1" xmlns="http://www.w3.org/2000/svg" xmlns:xlink="http://www.w3.org/1999/xlink" x="0px" y="0px"
	 width="44.666px" height="44.667px" viewBox="0 0 44.666 44.667" enable-background="new 0 0 44.666 44.667" xml:space="preserve">
<g id="Layer_1_1_" display="none">
	<polygon display="inline" fill="none" stroke="#000000" stroke-width="2" stroke-miterlimit="10" points="-71.332,27.078 
		-42.898,-1.356 -35.773,5.769 -64.207,34.203 -73.56,36.431 	"/>
	<polygon display="inline" fill="none" stroke="#000000" stroke-width="4" stroke-miterlimit="10" points="-71.332,130.167 
		-42.898,101.733 -35.773,108.859 -64.207,137.292 -73.56,139.521 	"/>
	<polygon display="inline" fill="none" stroke="#000000" stroke-width="6" stroke-miterlimit="10" points="-71.332,233.257 
		-42.898,204.824 -35.773,211.949 -64.207,240.382 -73.56,242.611 	"/>
	<path display="inline" fill="none" stroke="#000000" stroke-width="2" stroke-miterlimit="10" d="M42.64,20.723
		c0,0-30.798-30.583-61.382,0.001C-18.742,20.724,10.327,53.035,42.64,20.723z"/>
	<circle display="inline" cx="12.337" cy="19.13" r="12"/>
	
		<line display="inline" fill="none" stroke="#FFFFFF" stroke-width="2" stroke-miterlimit="10" x1="-2.663" y1="21.107" x2="9.337" y2="12.399"/>
	<path display="inline" fill="none" stroke="#000000" stroke-width="4" stroke-miterlimit="10" d="M42.64,121.658
		c0,0-30.798-30.584-61.382,0C-18.742,121.658,10.327,153.968,42.64,121.658z"/>
	<circle display="inline" cx="12.337" cy="120.064" r="12"/>
	
		<line display="inline" fill="none" stroke="#FFFFFF" stroke-width="4" stroke-miterlimit="10" x1="-2.663" y1="124.417" x2="9.337" y2="115.71"/>
	<path display="inline" fill="none" stroke="#000000" stroke-width="6" stroke-miterlimit="10" d="M42.64,227.059
		c0,0-30.798-30.584-61.382,0.002C-18.742,227.061,10.327,259.371,42.64,227.059z"/>
	<circle display="inline" cx="12.337" cy="225.466" r="12"/>
	
		<line display="inline" fill="none" stroke="#FFFFFF" stroke-width="5" stroke-miterlimit="10" x1="0.337" y1="229.82" x2="12.337" y2="221.112"/>
	
		<circle display="inline" fill="none" stroke="#000000" stroke-width="2" stroke-miterlimit="10" cx="98.979" cy="21.697" r="20.805"/>
	
		<circle display="inline" fill="none" stroke="#000000" stroke-width="4" stroke-miterlimit="10" cx="98.951" cy="122.041" r="20.804"/>
	
		<circle display="inline" fill="none" stroke="#000000" stroke-width="4.9437" stroke-miterlimit="10" cx="98.979" cy="223.717" r="20.804"/>
	
		<line display="inline" fill="none" stroke="#000000" stroke-width="2" stroke-miterlimit="10" x1="84.269" y1="36.408" x2="113.635" y2="7.041"/>
	
		<line display="inline" fill="none" stroke="#000000" stroke-width="4" stroke-miterlimit="10" x1="84.24" y1="136.751" x2="114.149" y2="106.841"/>
	
		<line display="inline" fill="none" stroke="#000000" stroke-width="4.9437" stroke-miterlimit="10" x1="84.269" y1="238.427" x2="113.69" y2="209.005"/>
	
		<rect x="154.26" y="5.042" display="inline" fill="none" stroke="#000000" stroke-width="2" stroke-miterlimit="10" width="30.154" height="34.825"/>
	
		<line display="inline" fill="none" stroke="#000000" stroke-width="2" stroke-miterlimit="10" x1="148.694" y1="5.042" x2="189.979" y2="5.042"/>
	<polyline display="inline" fill="none" stroke="#000000" stroke-width="2" stroke-miterlimit="10" points="177.489,5.266 
		175.755,-1.606 162.919,-1.606 161.185,5.266 	"/>
	
		<line display="inline" fill="none" stroke="#000000" stroke-width="2" stroke-miterlimit="10" x1="161.123" y1="10.93" x2="161.123" y2="31.261"/>
	
		<line display="inline" fill="none" stroke="#000000" stroke-width="2" stroke-miterlimit="10" x1="169.104" y1="10.93" x2="169.104" y2="31.261"/>
	
		<line display="inline" fill="none" stroke="#000000" stroke-width="2" stroke-miterlimit="10" x1="177.429" y1="10.93" x2="177.429" y2="31.261"/>
	
		<rect x="154.183" y="106.041" display="inline" fill="none" stroke="#000000" stroke-width="4" stroke-miterlimit="10" width="30.154" height="34.824"/>
	
		<line display="inline" fill="none" stroke="#000000" stroke-width="4" stroke-miterlimit="10" x1="148.618" y1="106.039" x2="189.901" y2="106.041"/>
	<polyline display="inline" fill="none" stroke="#000000" stroke-width="4" stroke-miterlimit="10" points="177.412,106.263 
		175.679,99.391 162.842,99.391 161.106,106.263 	"/>
	
		<line display="inline" fill="none" stroke="#000000" stroke-width="4" stroke-miterlimit="10" x1="161.046" y1="111.927" x2="161.046" y2="132.257"/>
	
		<line display="inline" fill="none" stroke="#000000" stroke-width="4" stroke-miterlimit="10" x1="169.028" y1="111.927" x2="169.028" y2="132.257"/>
	
		<line display="inline" fill="none" stroke="#000000" stroke-width="4" stroke-miterlimit="10" x1="177.351" y1="111.927" x2="177.351" y2="132.257"/>
	
		<rect x="154.183" y="209.128" display="inline" fill="none" stroke="#000000" stroke-width="4.9437" stroke-miterlimit="10" width="30.154" height="34.824"/>
	
		<line display="inline" fill="none" stroke="#000000" stroke-width="4.9437" stroke-miterlimit="10" x1="148.618" y1="209.128" x2="189.901" y2="209.128"/>
	<polyline display="inline" fill="none" stroke="#000000" stroke-width="4.9437" stroke-miterlimit="10" points="177.412,209.353 
		175.679,202.48 162.842,202.48 161.106,209.353 	"/>
	
		<line display="inline" fill="none" stroke="#000000" stroke-width="4.9437" stroke-miterlimit="10" x1="162.046" y1="215.018" x2="162.046" y2="235.348"/>
	
		<line display="inline" fill="none" stroke="#000000" stroke-width="4.9437" stroke-miterlimit="10" x1="169.028" y1="215.018" x2="169.028" y2="235.348"/>
	
		<line display="inline" fill="none" stroke="#000000" stroke-width="4.9437" stroke-miterlimit="10" x1="176.351" y1="215.018" x2="176.351" y2="235.348"/>
	
		<rect x="223.794" y="101.533" transform="matrix(-0.7071 0.7071 -0.7071 -0.7071 472.6934 26.5565)" display="inline" fill="none" stroke="#000000" stroke-width="4" stroke-miterlimit="10" width="14.106" height="19.287"/>
	
		<rect x="243.448" y="121.202" transform="matrix(-0.7071 0.7071 -0.7071 -0.7071 520.1592 46.2483)" display="inline" fill="none" stroke="#000000" stroke-width="4" stroke-miterlimit="10" width="14.107" height="19.287"/>
	
		<line display="inline" fill="none" stroke="#000000" stroke-width="4" stroke-miterlimit="10" x1="233.388" y1="113.716" x2="248.104" y2="128.435"/>
	
		<rect x="224.792" y="1.659" transform="matrix(-0.7071 0.7071 -0.7071 -0.7071 403.7729 -144.6486)" display="inline" fill="none" stroke="#000000" stroke-width="2" stroke-miterlimit="10" width="14.107" height="19.287"/>
	
		<rect x="244.449" y="21.318" transform="matrix(-0.7071 0.7071 -0.7071 -0.7071 451.2278 -124.9947)" display="inline" fill="none" stroke="#000000" stroke-width="2" stroke-miterlimit="10" width="14.107" height="19.287"/>
	
		<line display="inline" fill="none" stroke="#000000" stroke-width="2" stroke-miterlimit="10" x1="234.388" y1="13.841" x2="249.104" y2="28.559"/>
	
		<rect x="223.793" y="204.248" transform="matrix(-0.7072 0.707 -0.707 -0.7072 545.3258 201.9322)" display="inline" fill="none" stroke="#000000" stroke-width="4.9437" stroke-miterlimit="10" width="14.108" height="19.286"/>
	
		<rect x="243.444" y="223.915" transform="matrix(-0.7071 0.7071 -0.7071 -0.7071 592.777 221.5809)" display="inline" fill="none" stroke="#000000" stroke-width="4.9437" stroke-miterlimit="10" width="14.108" height="19.288"/>
	
		<line display="inline" fill="none" stroke="#000000" stroke-width="4.9437" stroke-miterlimit="10" x1="233.388" y1="216.427" x2="248.104" y2="231.146"/>
	<polygon display="inline" fill="none" stroke="#000000" stroke-width="2" stroke-miterlimit="10" points="301.087,3.684 
		323.914,3.684 323.914,38.507 293.76,38.507 293.76,11.083 	"/>
	<polyline display="inline" fill="none" stroke="#000000" stroke-width="2" stroke-miterlimit="10" points="301.087,3.684 
		301.087,11.305 293.76,11.305 	"/>
	<polygon display="inline" fill="#FFFFFF" stroke="#000000" stroke-width="2" stroke-miterlimit="10" points="309.087,10.684 
		331.914,10.684 331.914,45.507 301.76,45.507 301.76,18.083 	"/>
	<polyline display="inline" fill="none" stroke="#000000" stroke-width="2" stroke-miterlimit="10" points="309.087,10.684 
		309.087,18.305 301.76,18.305 	"/>
	<polygon display="inline" fill="none" stroke="#000000" stroke-width="4" stroke-miterlimit="10" points="301.087,100.884 
		323.914,100.884 323.914,135.708 293.76,135.708 293.76,108.285 	"/>
	<polyline display="inline" fill="none" stroke="#000000" stroke-width="4" stroke-miterlimit="10" points="303.087,100.884 
		303.087,110.505 293.76,110.505 	"/>
	<polygon display="inline" fill="#FFFFFF" stroke="#000000" stroke-width="4" stroke-miterlimit="10" points="311.087,110.884 
		333.914,110.884 333.914,145.708 303.76,145.708 303.76,118.285 	"/>
	<polyline display="inline" fill="none" stroke="#000000" stroke-width="4" stroke-miterlimit="10" points="313.087,110.884 
		313.087,120.505 303.76,120.505 	"/>
	<polygon display="inline" fill="none" stroke="#000000" stroke-width="6" stroke-miterlimit="10" points="301.087,201.479 
		323.914,201.479 323.914,236.302 293.76,236.302 293.76,208.878 	"/>
	<polyline display="inline" fill="none" stroke="#000000" stroke-width="6" stroke-miterlimit="10" points="305.087,201.479 
		305.087,213.1 293.76,213.1 	"/>
	<polygon display="inline" fill="#FFFFFF" stroke="#000000" stroke-width="6" stroke-miterlimit="10" points="311.087,211.479 
		333.914,211.479 333.914,246.302 303.76,246.302 303.76,218.878 	"/>
	<polyline display="inline" fill="none" stroke="#000000" stroke-width="6" stroke-miterlimit="10" points="315.087,211.479 
		315.087,223.1 303.76,223.1 	"/>
	
		<rect x="363.678" y="4.764" display="inline" fill="#FFFFFF" stroke="#000000" stroke-width="2" stroke-miterlimit="10" width="49.992" height="40.112"/>
	
		<line display="inline" fill="none" stroke="#000000" stroke-width="6" stroke-miterlimit="10" x1="373.671" y1="38.507" x2="373.671" y2="24.82"/>
	
		<line display="inline" fill="none" stroke="#000000" stroke-width="6" stroke-miterlimit="10" x1="383.893" y1="38.507" x2="383.893" y2="14.334"/>
	
		<line display="inline" fill="none" stroke="#000000" stroke-width="6" stroke-miterlimit="10" x1="394.115" y1="38.507" x2="394.115" y2="24.82"/>
	
		<line display="inline" fill="none" stroke="#000000" stroke-width="6" stroke-miterlimit="10" x1="404.337" y1="38.507" x2="404.337" y2="14.334"/>
	
		<rect x="363.678" y="105.695" display="inline" fill="#FFFFFF" stroke="#000000" stroke-width="4" stroke-miterlimit="10" width="49.992" height="40.113"/>
	
		<line display="inline" fill="none" stroke="#000000" stroke-width="6" stroke-miterlimit="10" x1="373.671" y1="139.439" x2="373.671" y2="125.751"/>
	
		<line display="inline" fill="none" stroke="#000000" stroke-width="6" stroke-miterlimit="10" x1="383.893" y1="139.439" x2="383.893" y2="115.266"/>
	
		<line display="inline" fill="none" stroke="#000000" stroke-width="6" stroke-miterlimit="10" x1="394.115" y1="139.439" x2="394.115" y2="125.751"/>
	
		<line display="inline" fill="none" stroke="#000000" stroke-width="6" stroke-miterlimit="10" x1="404.337" y1="139.439" x2="404.337" y2="115.266"/>
	
		<rect x="363.678" y="207.386" display="inline" fill="#FFFFFF" stroke="#000000" stroke-width="6" stroke-miterlimit="10" width="49.992" height="40.113"/>
	
		<line display="inline" fill="none" stroke="#000000" stroke-width="6" stroke-miterlimit="10" x1="373.671" y1="241.13" x2="373.671" y2="227.443"/>
	
		<line display="inline" fill="none" stroke="#000000" stroke-width="6" stroke-miterlimit="10" x1="383.893" y1="241.13" x2="383.893" y2="216.957"/>
	
		<line display="inline" fill="none" stroke="#000000" stroke-width="6" stroke-miterlimit="10" x1="394.115" y1="241.13" x2="394.115" y2="227.443"/>
	
		<line display="inline" fill="none" stroke="#000000" stroke-width="6" stroke-miterlimit="10" x1="404.337" y1="241.13" x2="404.337" y2="216.957"/>
</g>
<g id="Layer_2">
	<g>
		<circle fill="none" stroke="#000000" stroke-width="2" stroke-miterlimit="10" cx="22.333" cy="22.334" r="21.333"/>
		<polyline fill="none" stroke="#000000" stroke-width="2" stroke-miterlimit="10" points="17.879,12.69 28.181,22.992 
			18.865,32.307 		"/>
	</g>
</g>
</svg>
