<?xml version="1.0" encoding="utf-8"?>
<!-- Generator: Adobe Illustrator 16.0.0, SVG Export Plug-In . SVG Version: 6.00 Build 0)  -->
<!DOCTYPE svg PUBLIC "-//W3C//DTD SVG 1.1//EN" "http://www.w3.org/Graphics/SVG/1.1/DTD/svg11.dtd">
<svg version="1.1" id="Layer_1" xmlns="http://www.w3.org/2000/svg" xmlns:xlink="http://www.w3.org/1999/xlink" x="0px" y="0px"
	 width="55px" height="51.333px" viewBox="0 0 55 51.333" enable-background="new 0 0 55 51.333" xml:space="preserve">
<rect x="735.018" y="5.448" fill="#FFFFFF" stroke="#000000" stroke-width="2" stroke-miterlimit="10" width="49.992" height="40.114"/>
<polyline fill="none" stroke="#000000" stroke-width="2" stroke-miterlimit="10" points="735.018,5.448 760.014,25.505 
	785.01,5.448 "/>
<rect x="735.018" y="106.38" fill="#FFFFFF" stroke="#000000" stroke-width="4" stroke-miterlimit="10" width="49.992" height="40.113"/>
<polyline fill="none" stroke="#000000" stroke-width="4" stroke-miterlimit="10" points="735.018,106.38 760.014,126.437 
	785.01,106.38 "/>
<rect x="735.018" y="208.072" fill="#FFFFFF" stroke="#000000" stroke-width="6" stroke-miterlimit="10" width="49.992" height="40.113"/>
<polyline fill="none" stroke="#000000" stroke-width="6" stroke-miterlimit="10" points="735.018,208.072 760.014,228.128 
	785.01,208.072 "/>
<polyline fill="#FFFFFF" stroke="#000000" stroke-width="1.7915" stroke-miterlimit="10" points="637.254,27.181 637.254,45.562 
	677.367,45.562 677.367,5.448 659.354,5.448 "/>
<line fill="#FFFFFF" stroke="#000000" stroke-width="2" stroke-miterlimit="10" x1="657.311" y1="25.581" x2="637.316" y2="5.588"/>
<polyline fill="none" stroke="#000000" stroke-width="2" stroke-miterlimit="10" points="650.342,5.283 637.08,5.283 637.08,18.613 
	"/>
<polyline fill="#FFFFFF" stroke="#000000" stroke-width="4" stroke-miterlimit="10" points="637.254,128.195 637.254,146.576 
	677.367,146.576 677.367,106.462 659.354,106.462 "/>
<line fill="#FFFFFF" stroke="#000000" stroke-width="4" stroke-miterlimit="10" x1="657.311" y1="126.595" x2="637.316" y2="106.602"/>
<polyline fill="none" stroke="#000000" stroke-width="4" stroke-miterlimit="10" points="650.342,106.297 637.08,106.297 
	637.08,119.626 "/>
<polyline fill="#FFFFFF" stroke="#000000" stroke-width="6" stroke-miterlimit="10" points="637.254,229.886 637.254,248.267 
	677.367,248.267 677.367,208.154 659.354,208.154 "/>
<line fill="#FFFFFF" stroke="#000000" stroke-width="6" stroke-miterlimit="10" x1="657.311" y1="228.287" x2="637.316" y2="208.292"/>
<polyline fill="none" stroke="#000000" stroke-width="6" stroke-miterlimit="10" points="650.342,207.988 637.08,207.988 
	637.08,221.318 "/>
<line fill="none" stroke="#000000" stroke-width="2" stroke-miterlimit="10" x1="567.32" y1="5.588" x2="550.742" y2="45.562"/>
<line fill="none" stroke="#000000" stroke-width="4" stroke-miterlimit="10" x1="567.32" y1="106.608" x2="550.742" y2="146.582"/>
<line fill="none" stroke="#000000" stroke-width="6" stroke-miterlimit="10" x1="567.32" y1="207.628" x2="550.742" y2="247.601"/>
<line fill="none" stroke="#000000" stroke-width="2" stroke-miterlimit="10" x1="137.324" y1="-177.707" x2="177.676" y2="-177.707"/>
<line fill="none" stroke="#000000" stroke-width="4" stroke-miterlimit="10" x1="137.324" y1="-76.851" x2="177.676" y2="-76.851"/>
<line fill="none" stroke="#000000" stroke-width="6" stroke-miterlimit="10" x1="137.324" y1="24.999" x2="177.676" y2="24.999"/>
<circle cx="-200.153" cy="131.487" r="18.813"/>
<rect x="-288.521" y="112.835" width="37.805" height="37.806"/>
<polygon fill="none" stroke="#000000" stroke-width="2" stroke-miterlimit="10" points="-193.131,-150.672 -226.787,-170.105 
	-193.131,-189.537 "/>
<polyline fill="none" stroke="#000000" stroke-width="2" stroke-miterlimit="10" points="-276.633,-151.452 -299.29,-170.885 
	-276.633,-190.317 "/>
<polyline fill="none" stroke="#000000" stroke-width="4" stroke-miterlimit="10" points="-276.633,-49.572 -299.29,-69.005 
	-276.633,-88.437 "/>
<polyline fill="none" stroke="#000000" stroke-width="6" stroke-miterlimit="10" points="-276.633,45.149 -299.29,25.715 
	-276.633,6.284 "/>
<polyline fill="none" stroke="#000000" stroke-width="2" stroke-miterlimit="10" points="-346.676,-58.143 -369.333,-77.577 
	-346.676,-97.008 "/>
<polyline fill="none" stroke="#000000" stroke-width="4" stroke-miterlimit="10" points="-346.795,-6.275 -369.452,-25.709 
	-346.795,-45.141 "/>
<polyline fill="none" stroke="#000000" stroke-width="6" stroke-miterlimit="10" points="-347.676,44.929 -370.333,25.496 
	-347.676,6.064 "/>
<polyline fill="none" stroke="#000000" stroke-width="2" stroke-miterlimit="10" points="-375.138,-58.143 -397.795,-77.577 
	-375.138,-97.008 "/>
<polyline fill="none" stroke="#000000" stroke-width="4" stroke-miterlimit="10" points="-373.257,-6.275 -395.915,-25.709 
	-373.257,-45.141 "/>
<polyline fill="none" stroke="#000000" stroke-width="6" stroke-miterlimit="10" points="-372.138,44.929 -394.795,25.496 
	-372.138,6.064 "/>
<polygon points="-324.346,150.874 -358.004,131.441 -324.346,112.008 "/>
<polygon fill="none" stroke="#000000" stroke-width="4" stroke-miterlimit="10" points="-193.131,-49.792 -226.787,-69.226 
	-193.131,-88.658 "/>
<polygon fill="none" stroke="#000000" stroke-width="6" stroke-miterlimit="10" points="-193.131,44.929 -226.787,25.496 
	-193.131,6.064 "/>
<line fill="none" stroke="#000000" stroke-width="2" stroke-miterlimit="10" x1="35.789" y1="6.063" x2="19.21" y2="46.038"/>
<line fill="none" stroke="#000000" stroke-width="4" stroke-miterlimit="10" x1="35.789" y1="107.083" x2="19.21" y2="147.057"/>
<line fill="none" stroke="#000000" stroke-width="6" stroke-miterlimit="10" x1="35.789" y1="208.104" x2="19.21" y2="248.077"/>
</svg>
