<?xml version="1.0" encoding="utf-8"?>
<!-- Generator: Adobe Illustrator 16.0.4, SVG Export Plug-In . SVG Version: 6.00 Build 0)  -->
<!DOCTYPE svg PUBLIC "-//W3C//DTD SVG 1.1//EN" "http://www.w3.org/Graphics/SVG/1.1/DTD/svg11.dtd">
<svg version="1.1" id="Layer_1" xmlns="http://www.w3.org/2000/svg" xmlns:xlink="http://www.w3.org/1999/xlink" x="0px" y="0px"
	 width="46.667px" height="46.666px" viewBox="0 0 46.667 46.666" enable-background="new 0 0 46.667 46.666" xml:space="preserve">
<g id="Layer_1_1_" display="none">
	<polygon display="inline" fill="none" stroke="#000000" stroke-width="2" stroke-miterlimit="10" points="-147.665,-71.257 
		-119.231,-99.691 -112.106,-92.565 -140.54,-64.132 -149.893,-61.903 	"/>
	<polygon display="inline" fill="none" stroke="#000000" stroke-width="4" stroke-miterlimit="10" points="-147.665,31.833 
		-119.231,3.399 -112.106,10.524 -140.54,38.958 -149.893,41.187 	"/>
	<polygon display="inline" fill="none" stroke="#000000" stroke-width="6" stroke-miterlimit="10" points="-147.665,134.923 
		-119.231,106.489 -112.106,113.615 -140.54,142.048 -149.893,144.276 	"/>
	<path display="inline" fill="none" stroke="#000000" stroke-width="2" stroke-miterlimit="10" d="M-33.694-77.612
		c0,0-30.797-30.583-61.381,0.001C-95.075-77.61-66.006-45.299-33.694-77.612z"/>
	<circle display="inline" cx="-63.996" cy="-79.204" r="12"/>
	
		<line display="inline" fill="none" stroke="#FFFFFF" stroke-width="2" stroke-miterlimit="10" x1="-78.996" y1="-77.227" x2="-66.996" y2="-85.935"/>
	<path display="inline" fill="none" stroke="#000000" stroke-width="4" stroke-miterlimit="10" d="M-33.694,23.322
		c0,0-30.797-30.583-61.381,0.001C-95.075,23.324-66.006,55.634-33.694,23.322z"/>
	<circle display="inline" cx="-63.996" cy="21.73" r="12"/>
	
		<line display="inline" fill="none" stroke="#FFFFFF" stroke-width="4" stroke-miterlimit="10" x1="-78.996" y1="26.084" x2="-66.996" y2="17.376"/>
	<path display="inline" fill="none" stroke="#000000" stroke-width="6" stroke-miterlimit="10" d="M-33.694,128.724
		c0,0-30.797-30.584-61.381,0.002C-95.075,128.726-66.006,161.037-33.694,128.724z"/>
	<circle display="inline" cx="-63.996" cy="127.132" r="12"/>
	
		<line display="inline" fill="none" stroke="#FFFFFF" stroke-width="5" stroke-miterlimit="10" x1="-75.996" y1="131.485" x2="-63.996" y2="122.778"/>
	
		<circle display="inline" fill="none" stroke="#000000" stroke-width="2" stroke-miterlimit="10" cx="22.646" cy="-76.637" r="20.805"/>
	
		<circle display="inline" fill="none" stroke="#000000" stroke-width="4" stroke-miterlimit="10" cx="22.619" cy="23.707" r="20.804"/>
	
		<circle display="inline" fill="none" stroke="#000000" stroke-width="4.9437" stroke-miterlimit="10" cx="22.646" cy="125.382" r="20.804"/>
	
		<line display="inline" fill="none" stroke="#000000" stroke-width="2" stroke-miterlimit="10" x1="7.936" y1="-61.926" x2="37.302" y2="-91.293"/>
	
		<line display="inline" fill="none" stroke="#000000" stroke-width="4" stroke-miterlimit="10" x1="7.908" y1="38.417" x2="37.817" y2="8.507"/>
	
		<line display="inline" fill="none" stroke="#000000" stroke-width="4.9437" stroke-miterlimit="10" x1="7.936" y1="140.093" x2="37.357" y2="110.671"/>
	
		<rect x="77.927" y="-93.292" display="inline" fill="none" stroke="#000000" stroke-width="2" stroke-miterlimit="10" width="30.154" height="34.824"/>
	
		<line display="inline" fill="none" stroke="#000000" stroke-width="2" stroke-miterlimit="10" x1="72.362" y1="-93.292" x2="113.647" y2="-93.292"/>
	<polyline display="inline" fill="none" stroke="#000000" stroke-width="2" stroke-miterlimit="10" points="101.158,-93.069 
		99.421,-99.94 86.585,-99.94 84.852,-93.069 	"/>
	
		<line display="inline" fill="none" stroke="#000000" stroke-width="2" stroke-miterlimit="10" x1="84.791" y1="-87.404" x2="84.791" y2="-67.073"/>
	
		<line display="inline" fill="none" stroke="#000000" stroke-width="2" stroke-miterlimit="10" x1="92.773" y1="-87.404" x2="92.773" y2="-67.073"/>
	
		<line display="inline" fill="none" stroke="#000000" stroke-width="2" stroke-miterlimit="10" x1="101.096" y1="-87.404" x2="101.096" y2="-67.073"/>
	
		<rect x="77.85" y="7.705" display="inline" fill="none" stroke="#000000" stroke-width="4" stroke-miterlimit="10" width="30.153" height="34.823"/>
	
		<line display="inline" fill="none" stroke="#000000" stroke-width="4" stroke-miterlimit="10" x1="72.285" y1="7.705" x2="113.569" y2="7.705"/>
	<polyline display="inline" fill="none" stroke="#000000" stroke-width="4" stroke-miterlimit="10" points="101.08,7.928 
		99.346,1.057 86.509,1.057 84.774,7.928 	"/>
	
		<line display="inline" fill="none" stroke="#000000" stroke-width="4" stroke-miterlimit="10" x1="84.712" y1="13.593" x2="84.712" y2="33.923"/>
	
		<line display="inline" fill="none" stroke="#000000" stroke-width="4" stroke-miterlimit="10" x1="92.696" y1="13.593" x2="92.696" y2="33.923"/>
	
		<line display="inline" fill="none" stroke="#000000" stroke-width="4" stroke-miterlimit="10" x1="101.018" y1="13.593" x2="101.018" y2="33.923"/>
	
		<rect x="77.85" y="110.794" display="inline" fill="none" stroke="#000000" stroke-width="4.9437" stroke-miterlimit="10" width="30.153" height="34.824"/>
	
		<line display="inline" fill="none" stroke="#000000" stroke-width="4.9437" stroke-miterlimit="10" x1="72.285" y1="110.794" x2="113.569" y2="110.794"/>
	<polyline display="inline" fill="none" stroke="#000000" stroke-width="4.9437" stroke-miterlimit="10" points="101.08,111.019 
		99.346,104.146 86.509,104.146 84.774,111.019 	"/>
	
		<line display="inline" fill="none" stroke="#000000" stroke-width="4.9437" stroke-miterlimit="10" x1="85.712" y1="116.683" x2="85.712" y2="137.013"/>
	
		<line display="inline" fill="none" stroke="#000000" stroke-width="4.9437" stroke-miterlimit="10" x1="92.696" y1="116.683" x2="92.696" y2="137.013"/>
	
		<line display="inline" fill="none" stroke="#000000" stroke-width="4.9437" stroke-miterlimit="10" x1="100.018" y1="116.683" x2="100.018" y2="137.013"/>
	
		<rect x="147.464" y="3.203" transform="matrix(0.7071 -0.7071 0.7071 0.7071 36.1781 113.0289)" display="inline" fill="none" stroke="#000000" stroke-width="4" stroke-miterlimit="10" width="14.107" height="19.287"/>
	
		<rect x="167.122" y="22.863" transform="matrix(0.7071 -0.7071 0.7071 0.7071 28.0242 132.6747)" display="inline" fill="none" stroke="#000000" stroke-width="4" stroke-miterlimit="10" width="14.107" height="19.288"/>
	
		<line display="inline" fill="none" stroke="#000000" stroke-width="4" stroke-miterlimit="10" x1="157.055" y1="15.383" x2="171.772" y2="30.101"/>
	
		<rect x="148.456" y="-96.675" transform="matrix(0.7071 -0.7071 0.7071 0.7071 107.0838 84.4696)" display="inline" fill="none" stroke="#000000" stroke-width="2" stroke-miterlimit="10" width="14.107" height="19.287"/>
	
		<rect x="168.128" y="-77.018" transform="matrix(0.7071 -0.7071 0.7071 0.7071 98.9545 104.1401)" display="inline" fill="none" stroke="#000000" stroke-width="2" stroke-miterlimit="10" width="14.107" height="19.288"/>
	
		<line display="inline" fill="none" stroke="#000000" stroke-width="2" stroke-miterlimit="10" x1="158.055" y1="-84.493" x2="172.772" y2="-69.776"/>
	
		<rect x="147.464" y="105.914" transform="matrix(0.7071 -0.7071 0.7071 0.7071 -36.4543 143.1068)" display="inline" fill="none" stroke="#000000" stroke-width="4.9437" stroke-miterlimit="10" width="14.108" height="19.287"/>
	
		<rect x="167.115" y="125.564" transform="matrix(0.7071 -0.7071 0.7071 0.7071 -44.5934 162.757)" display="inline" fill="none" stroke="#000000" stroke-width="4.9437" stroke-miterlimit="10" width="14.108" height="19.287"/>
	
		<line display="inline" fill="none" stroke="#000000" stroke-width="4.9437" stroke-miterlimit="10" x1="157.055" y1="118.093" x2="171.772" y2="132.812"/>
	<polygon display="inline" fill="none" stroke="#000000" stroke-width="2" stroke-miterlimit="10" points="224.753,-94.651 
		247.582,-94.651 247.582,-59.827 217.427,-59.827 217.427,-87.251 	"/>
	<polyline display="inline" fill="none" stroke="#000000" stroke-width="2" stroke-miterlimit="10" points="224.753,-94.651 
		224.753,-87.029 217.427,-87.029 	"/>
	<polygon display="inline" fill="#FFFFFF" stroke="#000000" stroke-width="2" stroke-miterlimit="10" points="232.753,-87.651 
		255.582,-87.651 255.582,-52.827 225.427,-52.827 225.427,-80.251 	"/>
	<polyline display="inline" fill="none" stroke="#000000" stroke-width="2" stroke-miterlimit="10" points="232.753,-87.651 
		232.753,-80.029 225.427,-80.029 	"/>
	<polygon display="inline" fill="none" stroke="#000000" stroke-width="4" stroke-miterlimit="10" points="224.753,2.55 
		247.582,2.55 247.582,37.375 217.427,37.375 217.427,9.95 	"/>
	<polyline display="inline" fill="none" stroke="#000000" stroke-width="4" stroke-miterlimit="10" points="226.753,2.55 
		226.753,12.172 217.427,12.172 	"/>
	<polygon display="inline" fill="#FFFFFF" stroke="#000000" stroke-width="4" stroke-miterlimit="10" points="234.753,12.55 
		257.582,12.55 257.582,47.375 227.427,47.375 227.427,19.95 	"/>
	<polyline display="inline" fill="none" stroke="#000000" stroke-width="4" stroke-miterlimit="10" points="236.753,12.55 
		236.753,22.172 227.427,22.172 	"/>
	<polygon display="inline" fill="none" stroke="#000000" stroke-width="6" stroke-miterlimit="10" points="224.753,103.144 
		247.582,103.144 247.582,137.968 217.427,137.968 217.427,110.544 	"/>
	<polyline display="inline" fill="none" stroke="#000000" stroke-width="6" stroke-miterlimit="10" points="228.753,103.144 
		228.753,114.765 217.427,114.765 	"/>
	<polygon display="inline" fill="#FFFFFF" stroke="#000000" stroke-width="6" stroke-miterlimit="10" points="234.753,113.144 
		257.582,113.144 257.582,147.968 227.427,147.968 227.427,120.544 	"/>
	<polyline display="inline" fill="none" stroke="#000000" stroke-width="6" stroke-miterlimit="10" points="238.753,113.144 
		238.753,124.765 227.427,124.765 	"/>
	
		<rect x="287.345" y="-93.571" display="inline" fill="#FFFFFF" stroke="#000000" stroke-width="2" stroke-miterlimit="10" width="49.992" height="40.113"/>
	
		<line display="inline" fill="none" stroke="#000000" stroke-width="6" stroke-miterlimit="10" x1="297.337" y1="-59.827" x2="297.337" y2="-73.514"/>
	
		<line display="inline" fill="none" stroke="#000000" stroke-width="6" stroke-miterlimit="10" x1="307.56" y1="-59.827" x2="307.56" y2="-84"/>
	
		<line display="inline" fill="none" stroke="#000000" stroke-width="6" stroke-miterlimit="10" x1="317.783" y1="-59.827" x2="317.783" y2="-73.514"/>
	
		<line display="inline" fill="none" stroke="#000000" stroke-width="6" stroke-miterlimit="10" x1="328.003" y1="-59.827" x2="328.003" y2="-84"/>
	
		<rect x="287.345" y="7.361" display="inline" fill="#FFFFFF" stroke="#000000" stroke-width="4" stroke-miterlimit="10" width="49.992" height="40.113"/>
	
		<line display="inline" fill="none" stroke="#000000" stroke-width="6" stroke-miterlimit="10" x1="297.337" y1="41.104" x2="297.337" y2="27.417"/>
	
		<line display="inline" fill="none" stroke="#000000" stroke-width="6" stroke-miterlimit="10" x1="307.56" y1="41.104" x2="307.56" y2="16.931"/>
	
		<line display="inline" fill="none" stroke="#000000" stroke-width="6" stroke-miterlimit="10" x1="317.783" y1="41.104" x2="317.783" y2="27.417"/>
	
		<line display="inline" fill="none" stroke="#000000" stroke-width="6" stroke-miterlimit="10" x1="328.003" y1="41.104" x2="328.003" y2="16.931"/>
	
		<rect x="287.345" y="109.052" display="inline" fill="#FFFFFF" stroke="#000000" stroke-width="6" stroke-miterlimit="10" width="49.992" height="40.113"/>
	
		<line display="inline" fill="none" stroke="#000000" stroke-width="6" stroke-miterlimit="10" x1="297.337" y1="142.796" x2="297.337" y2="129.108"/>
	
		<line display="inline" fill="none" stroke="#000000" stroke-width="6" stroke-miterlimit="10" x1="307.56" y1="142.796" x2="307.56" y2="118.623"/>
	
		<line display="inline" fill="none" stroke="#000000" stroke-width="6" stroke-miterlimit="10" x1="317.783" y1="142.796" x2="317.783" y2="129.108"/>
	
		<line display="inline" fill="none" stroke="#000000" stroke-width="6" stroke-miterlimit="10" x1="328.003" y1="142.796" x2="328.003" y2="118.623"/>
</g>
<rect x="1.917" y="2" width="42.75" height="42.583"/>
</svg>
