<?xml version="1.0" encoding="utf-8"?>
<!-- Generator: Adobe Illustrator 16.0.4, SVG Export Plug-In . SVG Version: 6.00 Build 0)  -->
<!DOCTYPE svg PUBLIC "-//W3C//DTD SVG 1.1//EN" "http://www.w3.org/Graphics/SVG/1.1/DTD/svg11.dtd">
<svg version="1.1" id="Layer_1" xmlns="http://www.w3.org/2000/svg" xmlns:xlink="http://www.w3.org/1999/xlink" x="0px" y="0px"
	 width="46.666px" height="46.667px" viewBox="0 0 46.666 46.667" enable-background="new 0 0 46.666 46.667" xml:space="preserve">
<g id="Layer_1_1_" display="none">
	<polygon display="inline" fill="none" stroke="#000000" stroke-width="2" stroke-miterlimit="10" points="7.001,-71.256 
		35.435,-99.69 42.56,-92.565 14.126,-64.131 4.773,-61.903 	"/>
	<polygon display="inline" fill="none" stroke="#000000" stroke-width="4" stroke-miterlimit="10" points="7.001,31.833 
		35.435,3.399 42.56,10.525 14.126,38.958 4.773,41.188 	"/>
	<polygon display="inline" fill="none" stroke="#000000" stroke-width="6" stroke-miterlimit="10" points="7.001,134.923 
		35.435,106.49 42.56,113.615 14.126,142.048 4.773,144.277 	"/>
	<path display="inline" fill="none" stroke="#000000" stroke-width="2" stroke-miterlimit="10" d="M120.972-77.611
		c0,0-30.797-30.583-61.381,0.001C59.591-77.61,88.66-45.299,120.972-77.611z"/>
	<circle display="inline" cx="90.67" cy="-79.204" r="12"/>
	
		<line display="inline" fill="none" stroke="#FFFFFF" stroke-width="2" stroke-miterlimit="10" x1="75.67" y1="-77.227" x2="87.67" y2="-85.935"/>
	<path display="inline" fill="none" stroke="#000000" stroke-width="4" stroke-miterlimit="10" d="M120.972,23.323
		c0,0-30.797-30.583-61.381,0.001C59.591,23.324,88.66,55.634,120.972,23.323z"/>
	<circle display="inline" cx="90.67" cy="21.73" r="12"/>
	
		<line display="inline" fill="none" stroke="#FFFFFF" stroke-width="4" stroke-miterlimit="10" x1="75.67" y1="26.083" x2="87.67" y2="17.376"/>
	<path display="inline" fill="none" stroke="#000000" stroke-width="6" stroke-miterlimit="10" d="M120.972,128.725
		c0,0-30.797-30.584-61.381,0.002C59.591,128.727,88.66,161.037,120.972,128.725z"/>
	<circle display="inline" cx="90.67" cy="127.132" r="12"/>
	
		<line display="inline" fill="none" stroke="#FFFFFF" stroke-width="5" stroke-miterlimit="10" x1="78.67" y1="131.486" x2="90.67" y2="122.778"/>
	
		<circle display="inline" fill="none" stroke="#000000" stroke-width="2" stroke-miterlimit="10" cx="177.312" cy="-76.637" r="20.805"/>
	
		<circle display="inline" fill="none" stroke="#000000" stroke-width="4" stroke-miterlimit="10" cx="177.284" cy="23.707" r="20.804"/>
	
		<circle display="inline" fill="none" stroke="#000000" stroke-width="4.9437" stroke-miterlimit="10" cx="177.312" cy="125.383" r="20.804"/>
	
		<line display="inline" fill="none" stroke="#000000" stroke-width="2" stroke-miterlimit="10" x1="162.601" y1="-61.926" x2="191.968" y2="-91.293"/>
	
		<line display="inline" fill="none" stroke="#000000" stroke-width="4" stroke-miterlimit="10" x1="162.573" y1="38.417" x2="192.483" y2="8.508"/>
	
		<line display="inline" fill="none" stroke="#000000" stroke-width="4.9437" stroke-miterlimit="10" x1="162.601" y1="140.093" x2="192.022" y2="110.671"/>
	
		<rect x="232.593" y="-93.292" display="inline" fill="none" stroke="#000000" stroke-width="2" stroke-miterlimit="10" width="30.154" height="34.824"/>
	
		<line display="inline" fill="none" stroke="#000000" stroke-width="2" stroke-miterlimit="10" x1="227.028" y1="-93.292" x2="268.312" y2="-93.292"/>
	<polyline display="inline" fill="none" stroke="#000000" stroke-width="2" stroke-miterlimit="10" points="255.821,-93.068 
		254.088,-99.94 241.252,-99.94 239.517,-93.068 	"/>
	
		<line display="inline" fill="none" stroke="#000000" stroke-width="2" stroke-miterlimit="10" x1="239.456" y1="-87.404" x2="239.456" y2="-67.073"/>
	
		<line display="inline" fill="none" stroke="#000000" stroke-width="2" stroke-miterlimit="10" x1="247.438" y1="-87.404" x2="247.438" y2="-67.073"/>
	
		<line display="inline" fill="none" stroke="#000000" stroke-width="2" stroke-miterlimit="10" x1="255.763" y1="-87.404" x2="255.763" y2="-67.073"/>
	
		<rect x="232.517" y="7.706" display="inline" fill="none" stroke="#000000" stroke-width="4" stroke-miterlimit="10" width="30.153" height="34.825"/>
	
		<line display="inline" fill="none" stroke="#000000" stroke-width="4" stroke-miterlimit="10" x1="226.951" y1="7.705" x2="268.233" y2="7.706"/>
	<polyline display="inline" fill="none" stroke="#000000" stroke-width="4" stroke-miterlimit="10" points="255.745,7.929 
		254.013,1.057 241.175,1.057 239.44,7.929 	"/>
	
		<line display="inline" fill="none" stroke="#000000" stroke-width="4" stroke-miterlimit="10" x1="239.379" y1="13.593" x2="239.379" y2="33.923"/>
	
		<line display="inline" fill="none" stroke="#000000" stroke-width="4" stroke-miterlimit="10" x1="247.36" y1="13.593" x2="247.36" y2="33.923"/>
	
		<line display="inline" fill="none" stroke="#000000" stroke-width="4" stroke-miterlimit="10" x1="255.685" y1="13.593" x2="255.685" y2="33.923"/>
	
		<rect x="232.517" y="110.794" display="inline" fill="none" stroke="#000000" stroke-width="4.9437" stroke-miterlimit="10" width="30.153" height="34.824"/>
	
		<line display="inline" fill="none" stroke="#000000" stroke-width="4.9437" stroke-miterlimit="10" x1="226.951" y1="110.794" x2="268.233" y2="110.794"/>
	<polyline display="inline" fill="none" stroke="#000000" stroke-width="4.9437" stroke-miterlimit="10" points="255.745,111.019 
		254.013,104.146 241.175,104.146 239.44,111.019 	"/>
	
		<line display="inline" fill="none" stroke="#000000" stroke-width="4.9437" stroke-miterlimit="10" x1="240.379" y1="116.684" x2="240.379" y2="137.014"/>
	
		<line display="inline" fill="none" stroke="#000000" stroke-width="4.9437" stroke-miterlimit="10" x1="247.36" y1="116.684" x2="247.36" y2="137.014"/>
	
		<line display="inline" fill="none" stroke="#000000" stroke-width="4.9437" stroke-miterlimit="10" x1="254.685" y1="116.684" x2="254.685" y2="137.014"/>
	
		<rect x="302.123" y="3.201" transform="matrix(-0.7071 0.7071 -0.7071 -0.7071 536.8738 -196.7001)" display="inline" fill="none" stroke="#000000" stroke-width="4" stroke-miterlimit="10" width="14.107" height="19.287"/>
	
		<rect x="321.788" y="22.867" transform="matrix(-0.7071 0.7071 -0.7071 -0.7071 584.3664 -177.0133)" display="inline" fill="none" stroke="#000000" stroke-width="4" stroke-miterlimit="10" width="14.107" height="19.288"/>
	
		<line display="inline" fill="none" stroke="#000000" stroke-width="4" stroke-miterlimit="10" x1="311.721" y1="15.383" x2="326.438" y2="30.101"/>
	
		<rect x="303.121" y="-96.673" transform="matrix(-0.7071 0.7071 -0.7071 -0.7071 467.9759 -367.8881)" display="inline" fill="none" stroke="#000000" stroke-width="2" stroke-miterlimit="10" width="14.107" height="19.287"/>
	
		<rect x="322.785" y="-77.016" transform="matrix(-0.7071 0.7071 -0.7071 -0.7071 515.4371 -348.2373)" display="inline" fill="none" stroke="#000000" stroke-width="2" stroke-miterlimit="10" width="14.107" height="19.288"/>
	
		<line display="inline" fill="none" stroke="#000000" stroke-width="2" stroke-miterlimit="10" x1="312.721" y1="-84.493" x2="327.438" y2="-69.775"/>
	
		<rect x="302.127" y="105.915" transform="matrix(-0.7071 0.7071 -0.7071 -0.7071 609.5103 -21.3667)" display="inline" fill="none" stroke="#000000" stroke-width="4.9437" stroke-miterlimit="10" width="14.108" height="19.287"/>
	
		<rect x="321.783" y="125.582" transform="matrix(-0.7071 0.7071 -0.7071 -0.7071 656.9719 -1.6943)" display="inline" fill="none" stroke="#000000" stroke-width="4.9437" stroke-miterlimit="10" width="14.107" height="19.288"/>
	
		<line display="inline" fill="none" stroke="#000000" stroke-width="4.9437" stroke-miterlimit="10" x1="311.721" y1="118.093" x2="326.438" y2="132.812"/>
	<polygon display="inline" fill="none" stroke="#000000" stroke-width="2" stroke-miterlimit="10" points="379.42,-94.65 
		402.247,-94.65 402.247,-59.826 372.093,-59.826 372.093,-87.25 	"/>
	<polyline display="inline" fill="none" stroke="#000000" stroke-width="2" stroke-miterlimit="10" points="379.42,-94.65 
		379.42,-87.029 372.093,-87.029 	"/>
	<polygon display="inline" fill="#FFFFFF" stroke="#000000" stroke-width="2" stroke-miterlimit="10" points="387.42,-87.65 
		410.247,-87.65 410.247,-52.826 380.093,-52.826 380.093,-80.25 	"/>
	<polyline display="inline" fill="none" stroke="#000000" stroke-width="2" stroke-miterlimit="10" points="387.42,-87.65 
		387.42,-80.029 380.093,-80.029 	"/>
	<polygon display="inline" fill="none" stroke="#000000" stroke-width="4" stroke-miterlimit="10" points="379.42,2.551 
		402.247,2.551 402.247,37.375 372.093,37.375 372.093,9.951 	"/>
	<polyline display="inline" fill="none" stroke="#000000" stroke-width="4" stroke-miterlimit="10" points="381.42,2.551 
		381.42,12.172 372.093,12.172 	"/>
	<polygon display="inline" fill="#FFFFFF" stroke="#000000" stroke-width="4" stroke-miterlimit="10" points="389.42,12.551 
		412.247,12.551 412.247,47.375 382.093,47.375 382.093,19.951 	"/>
	<polyline display="inline" fill="none" stroke="#000000" stroke-width="4" stroke-miterlimit="10" points="391.42,12.551 
		391.42,22.172 382.093,22.172 	"/>
	<polygon display="inline" fill="none" stroke="#000000" stroke-width="6" stroke-miterlimit="10" points="379.42,103.145 
		402.247,103.145 402.247,137.968 372.093,137.968 372.093,110.544 	"/>
	<polyline display="inline" fill="none" stroke="#000000" stroke-width="6" stroke-miterlimit="10" points="383.42,103.145 
		383.42,114.766 372.093,114.766 	"/>
	<polygon display="inline" fill="#FFFFFF" stroke="#000000" stroke-width="6" stroke-miterlimit="10" points="389.42,113.145 
		412.247,113.145 412.247,147.968 382.093,147.968 382.093,120.544 	"/>
	<polyline display="inline" fill="none" stroke="#000000" stroke-width="6" stroke-miterlimit="10" points="393.42,113.145 
		393.42,124.766 382.093,124.766 	"/>
	
		<rect x="442.011" y="-93.57" display="inline" fill="#FFFFFF" stroke="#000000" stroke-width="2" stroke-miterlimit="10" width="49.992" height="40.113"/>
	
		<line display="inline" fill="none" stroke="#000000" stroke-width="6" stroke-miterlimit="10" x1="452.004" y1="-59.826" x2="452.004" y2="-73.514"/>
	
		<line display="inline" fill="none" stroke="#000000" stroke-width="6" stroke-miterlimit="10" x1="462.226" y1="-59.826" x2="462.226" y2="-84"/>
	
		<line display="inline" fill="none" stroke="#000000" stroke-width="6" stroke-miterlimit="10" x1="472.448" y1="-59.826" x2="472.448" y2="-73.514"/>
	
		<line display="inline" fill="none" stroke="#000000" stroke-width="6" stroke-miterlimit="10" x1="482.67" y1="-59.826" x2="482.67" y2="-84"/>
	
		<rect x="442.011" y="7.361" display="inline" fill="#FFFFFF" stroke="#000000" stroke-width="4" stroke-miterlimit="10" width="49.992" height="40.113"/>
	
		<line display="inline" fill="none" stroke="#000000" stroke-width="6" stroke-miterlimit="10" x1="452.004" y1="41.105" x2="452.004" y2="27.417"/>
	
		<line display="inline" fill="none" stroke="#000000" stroke-width="6" stroke-miterlimit="10" x1="462.226" y1="41.105" x2="462.226" y2="16.932"/>
	
		<line display="inline" fill="none" stroke="#000000" stroke-width="6" stroke-miterlimit="10" x1="472.448" y1="41.105" x2="472.448" y2="27.417"/>
	
		<line display="inline" fill="none" stroke="#000000" stroke-width="6" stroke-miterlimit="10" x1="482.67" y1="41.105" x2="482.67" y2="16.932"/>
	
		<rect x="442.011" y="109.052" display="inline" fill="#FFFFFF" stroke="#000000" stroke-width="6" stroke-miterlimit="10" width="49.992" height="40.113"/>
	
		<line display="inline" fill="none" stroke="#000000" stroke-width="6" stroke-miterlimit="10" x1="452.004" y1="142.796" x2="452.004" y2="129.109"/>
	
		<line display="inline" fill="none" stroke="#000000" stroke-width="6" stroke-miterlimit="10" x1="462.226" y1="142.796" x2="462.226" y2="118.623"/>
	
		<line display="inline" fill="none" stroke="#000000" stroke-width="6" stroke-miterlimit="10" x1="472.448" y1="142.796" x2="472.448" y2="129.109"/>
	
		<line display="inline" fill="none" stroke="#000000" stroke-width="6" stroke-miterlimit="10" x1="482.67" y1="142.796" x2="482.67" y2="118.623"/>
</g>
<g id="Layer_2">
	<g>
		<circle fill="none" stroke="#000000" stroke-width="4" stroke-miterlimit="10" cx="23.333" cy="23.333" r="21.333"/>
		<polyline fill="none" stroke="#000000" stroke-width="4" stroke-miterlimit="10" points="18.879,13.688 29.181,23.99 
			19.865,33.305 		"/>
	</g>
</g>
</svg>
