<?xml version="1.0" encoding="utf-8"?>
<!-- Generator: Adobe Illustrator 16.0.4, SVG Export Plug-In . SVG Version: 6.00 Build 0)  -->
<!DOCTYPE svg PUBLIC "-//W3C//DTD SVG 1.1//EN" "http://www.w3.org/Graphics/SVG/1.1/DTD/svg11.dtd">
<svg version="1.1" id="Layer_1" xmlns="http://www.w3.org/2000/svg" xmlns:xlink="http://www.w3.org/1999/xlink" x="0px" y="0px"
	 width="66.971px" height="66.17px" viewBox="0 0 66.971 66.17" enable-background="new 0 0 66.971 66.17" xml:space="preserve">
<path fill="none" stroke="#000000" stroke-width="4" stroke-miterlimit="10" d="M64.137,32.875c0,0-30.798-30.583-61.382,0.001
	C2.756,32.877,31.825,65.188,64.137,32.875z"/>
<path d="M33.835,19.283c-6.628,0-12,5.373-12,12c0,0.381,0.021,0.758,0.057,1.13l10.468-7.498l2.911,4.065l-11.75,8.416
	c2.091,3.521,5.921,5.888,10.313,5.888c6.627,0,12-5.373,12-12C45.835,24.656,40.462,19.283,33.835,19.283z"/>
<line fill="none" stroke="#000000" stroke-width="4" stroke-miterlimit="10" x1="14.835" y1="51.256" x2="51.177" y2="14.914"/>
</svg>
